<?xml version="1.0" encoding="utf-8"?>
<!-- Generator: Adobe Illustrator 25.0.0, SVG Export Plug-In . SVG Version: 6.00 Build 0)  -->
<svg version="1.1" id="图层_1" xmlns="http://www.w3.org/2000/svg" xmlns:xlink="http://www.w3.org/1999/xlink" x="0px" y="0px"
	 viewBox="0 0 1920 1080" style="enable-background:new 0 0 1920 1080;" xml:space="preserve">
<style type="text/css">
	.st0{fill:#03E2F2;}
	.st1{fill:#ffffff;}
</style>
<g>
	<g>
		<path class="st0" d="M289.66,634.11c-7.31,0-14.62-2.78-20.19-8.35l9.07-9.07c6.13,6.13,16.11,6.13,22.24,0l9.07,9.07
			C304.28,631.33,296.97,634.11,289.66,634.11z"/>
	</g>
</g>
<g>
	<path d="M534.06,425.63c0.02-0.01,0.04-0.03,0.05-0.04l-0.18-0.06c-4.08-3.47-9.84-5.63-16.22-5.63c-0.07,0-0.13,0-0.2,0
		c-4.09-0.1-7.38-3.06-7.38-6.72c0-3.71,3.39-6.71,7.58-6.71c3.78,0,6.91,2.45,7.49,5.65c0.11,0.61,0.61,1.07,1.22,1.07h12.43
		c0.73,0,1.3-0.63,1.24-1.35c-0.85-9.41-10.54-16.82-22.37-16.82c-12.39,0-22.43,8.13-22.43,18.17c0,4.81,2.32,9.19,6.09,12.44
		c-0.02,0.01-0.04,0.03-0.05,0.04l0.18,0.06c4.08,3.47,9.84,5.63,16.22,5.63c0.07,0,0.13,0,0.2,0c4.09,0.1,7.38,3.06,7.38,6.72
		c0,3.71-3.39,6.71-7.58,6.71c-3.78,0-6.91-2.45-7.49-5.65c-0.11-0.61-0.61-1.07-1.22-1.07h-12.43c-0.73,0-1.3,0.63-1.24,1.35
		c0.85,9.41,10.54,16.82,22.37,16.82c12.39,0,22.43-8.13,22.43-18.17C540.15,433.26,537.83,428.88,534.06,425.63z"/>
</g>
<g>
	<path d="M278.41,397.14l-19.05,56.76c-0.39,1.15,0.47,2.35,1.69,2.35h11.13c0.77,0,1.45-0.49,1.69-1.21l15.79-47.05l15.79,47.05
		c0.24,0.73,0.92,1.21,1.69,1.21h11.13c1.22,0,2.08-1.19,1.69-2.35l-19.05-56.76c-0.43-1.28-1.63-2.14-2.97-2.14h-16.56
		C280.04,395,278.84,395.86,278.41,397.14z"/>
</g>
<g>
	<path d="M236.97,422.18H213.7V396.3c0-0.72-0.58-1.3-1.3-1.3h-12.3c-0.72,0-1.3,0.58-1.3,1.3v58.65c0,0.72,0.58,1.3,1.3,1.3h12.3
		c0.72,0,1.3-0.58,1.3-1.3v-20.26h23.27v20.26c0,0.72,0.58,1.3,1.3,1.3h12.3c0.72,0,1.3-0.58,1.3-1.3V396.3c0-0.72-0.58-1.3-1.3-1.3
		h-12.3c-0.72,0-1.3,0.58-1.3,1.3V422.18z"/>
</g>
<g>
	<path d="M351.85,395.01h-19c-1.84,0-3.33,1.49-3.33,3.33v54.56c0,1.84,1.49,3.33,3.33,3.33h19v0.02
		c17.24,0,31.21-13.71,31.21-30.62C383.06,408.72,369.09,395.01,351.85,395.01z M351.85,443.57v-0.02h-6.15
		c-0.67,0-1.21-0.54-1.21-1.21V408.9c0-0.67,0.54-1.21,1.21-1.21h6.15c8.85,0,16.03,8.03,16.03,17.94
		C367.88,435.54,360.71,443.57,351.85,443.57z"/>
</g>
<g>
	<path d="M413,395.01h-19c-1.84,0-3.33,1.49-3.33,3.33v54.56c0,1.84,1.49,3.33,3.33,3.33h19v0.02c17.24,0,31.21-13.71,31.21-30.62
		C444.21,408.72,430.24,395.01,413,395.01z M413,443.57v-0.02h-6.15c-0.67,0-1.21-0.54-1.21-1.21V408.9c0-0.67,0.54-1.21,1.21-1.21
		H413c8.85,0,16.03,8.03,16.03,17.94C429.03,435.54,421.86,443.57,413,443.57z"/>
</g>
<g>
	<path d="M289.66,446.53c-7.62,0-14.79-2.97-20.19-8.37l9.07-9.07c2.97,2.97,6.92,4.61,11.12,4.61s8.14-1.64,11.12-4.61l9.07,9.07
		C304.45,443.56,297.28,446.53,289.66,446.53z"/>
</g>
<g>
	<g>
		<path class="st1" d="M534.16,613.23c0.02-0.01,0.04-0.03,0.05-0.04l-0.18-0.06c-4.08-3.47-9.84-5.63-16.22-5.63
			c-0.07,0-0.13,0-0.2,0c-4.09-0.1-7.38-3.06-7.38-6.72c0-3.71,3.39-6.71,7.58-6.71c3.78,0,6.91,2.45,7.49,5.65
			c0.11,0.61,0.61,1.07,1.22,1.07h12.43c0.73,0,1.3-0.63,1.24-1.35c-0.85-9.41-10.54-16.82-22.37-16.82
			c-12.39,0-22.43,8.13-22.43,18.17c0,4.81,2.32,9.19,6.09,12.44c-0.02,0.02-0.04,0.03-0.05,0.04l0.18,0.06
			c4.08,3.47,9.84,5.63,16.22,5.63c0.07,0,0.13,0,0.2,0c4.09,0.1,7.38,3.06,7.38,6.72c0,3.71-3.39,6.71-7.58,6.71
			c-3.78,0-6.91-2.45-7.49-5.65c-0.11-0.61-0.61-1.07-1.22-1.07h-12.43c-0.73,0-1.3,0.63-1.24,1.35
			c0.85,9.41,10.54,16.82,22.37,16.82c12.39,0,22.43-8.13,22.43-18.17C540.24,620.86,537.93,616.49,534.16,613.23z"/>
	</g>
</g>
<g>
	<g>
		<path class="st1" d="M278.41,584.74l-19.05,56.76c-0.39,1.15,0.47,2.35,1.69,2.35h11.13c0.77,0,1.45-0.49,1.69-1.21l15.79-47.05
			l15.79,47.05c0.24,0.73,0.92,1.21,1.69,1.21h11.13c1.22,0,2.08-1.19,1.69-2.35l-19.05-56.76c-0.43-1.28-1.63-2.14-2.97-2.14
			h-16.56C280.04,582.6,278.84,583.47,278.41,584.74z"/>
	</g>
</g>
<g>
	<g>
		<path class="st1" d="M236.97,609.79H213.7V583.9c0-0.72-0.58-1.3-1.3-1.3h-12.3c-0.72,0-1.3,0.58-1.3,1.3v58.65
			c0,0.72,0.58,1.3,1.3,1.3h12.3c0.72,0,1.3-0.58,1.3-1.3v-20.26h23.27v20.26c0,0.72,0.58,1.3,1.3,1.3h12.3c0.72,0,1.3-0.58,1.3-1.3
			V583.9c0-0.72-0.58-1.3-1.3-1.3h-12.3c-0.72,0-1.3,0.58-1.3,1.3V609.79z"/>
	</g>
</g>
<g>
	<g>
		<path class="st1" d="M351.85,582.62h-19c-1.84,0-3.33,1.49-3.33,3.33v54.56c0,1.84,1.49,3.33,3.33,3.33h19v0.02
			c17.24,0,31.21-13.71,31.21-30.62C383.06,596.32,369.09,582.62,351.85,582.62z M351.85,631.18v-0.02h-6.15
			c-0.67,0-1.21-0.54-1.21-1.21V596.5c0-0.67,0.54-1.21,1.21-1.21h6.15c8.85,0,16.03,8.03,16.03,17.94
			C367.88,623.14,360.71,631.18,351.85,631.18z"/>
	</g>
</g>
<g>
	<g>
		<path class="st1" d="M413,582.62h-19c-1.84,0-3.33,1.49-3.33,3.33v54.56c0,1.84,1.49,3.33,3.33,3.33h19v0.02
			c17.24,0,31.21-13.71,31.21-30.62C444.21,596.32,430.24,582.62,413,582.62z M413,631.18v-0.02h-6.15c-0.67,0-1.21-0.54-1.21-1.21
			V596.5c0-0.67,0.54-1.21,1.21-1.21H413c8.85,0,16.03,8.03,16.03,17.94C429.03,623.14,421.86,631.18,413,631.18z"/>
	</g>
</g>
<g>
	<path d="M474,456.25h-11.02c-1.07,0-1.94-0.87-1.94-1.94v-46.86c0-1.07,0.87-1.94,1.94-1.94H474c1.07,0,1.94,0.87,1.94,1.94v46.86
		C475.93,455.38,475.07,456.25,474,456.25z"/>
</g>
<g>
	<path d="M445.35,405.4v-8.27c0-1.17,0.95-2.12,2.12-2.12h42.05c1.17,0,2.12,0.95,2.12,2.12v8.27c0,1.17-0.95,2.12-2.12,2.12h-42.05
		C446.3,407.52,445.35,406.57,445.35,405.4z"/>
</g>
<g>
	<g>
		<path d="M1050.59,627.61c0.02-0.01,0.03-0.03,0.05-0.04l-0.16-0.05c-3.61-3.07-8.7-4.98-14.34-4.98c-0.06,0-0.12,0-0.18,0
			c-3.62-0.09-6.53-2.71-6.53-5.94c0-3.28,3-5.94,6.7-5.94c3.34,0,6.11,2.16,6.62,4.99c0.1,0.54,0.54,0.94,1.08,0.94h10.99
			c0.64,0,1.15-0.55,1.09-1.2c-0.75-8.32-9.32-14.87-19.78-14.87c-10.95,0-19.84,7.19-19.84,16.07c0,4.26,2.05,8.13,5.38,11
			c-0.02,0.01-0.03,0.03-0.05,0.04l0.16,0.05c3.61,3.07,8.7,4.98,14.34,4.98c0.06,0,0.12,0,0.18,0c3.62,0.09,6.53,2.71,6.53,5.94
			c0,3.28-3,5.94-6.71,5.94c-3.34,0-6.11-2.16-6.62-4.99c-0.1-0.54-0.54-0.94-1.08-0.94h-10.99c-0.64,0-1.15,0.55-1.09,1.2
			c0.75,8.32,9.32,14.87,19.78,14.87c10.95,0,19.84-7.19,19.84-16.07C1055.97,634.36,1053.92,630.49,1050.59,627.61z"/>
	</g>
	<g>
		<path d="M824.52,602.41l-16.85,50.19c-0.34,1.02,0.42,2.08,1.49,2.08h9.84c0.68,0,1.28-0.43,1.49-1.07L834.47,612l13.97,41.61
			c0.22,0.64,0.82,1.07,1.49,1.07h9.84c1.08,0,1.84-1.06,1.49-2.08l-16.85-50.19c-0.38-1.13-1.44-1.89-2.63-1.89h-14.64
			C825.96,600.52,824.9,601.28,824.52,602.41z"/>
	</g>
	<g>
		<path d="M787.87,624.56H767.3v-22.89c0-0.63-0.51-1.15-1.15-1.15h-10.87c-0.63,0-1.15,0.51-1.15,1.15v51.87
			c0,0.63,0.51,1.15,1.15,1.15h10.87c0.63,0,1.15-0.51,1.15-1.15v-17.92h20.57v17.92c0,0.63,0.51,1.15,1.15,1.15h10.87
			c0.63,0,1.15-0.51,1.15-1.15v-51.87c0-0.63-0.51-1.15-1.15-1.15h-10.87c-0.63,0-1.15,0.51-1.15,1.15V624.56z"/>
	</g>
	<g>
		<path d="M889.46,600.53h-16.8c-1.62,0-2.94,1.32-2.94,2.94v48.25c0,1.62,1.32,2.94,2.94,2.94h16.8v0.02
			c15.24,0,27.6-12.12,27.6-27.07C917.06,612.65,904.7,600.53,889.46,600.53z M889.46,643.48v-0.02h-5.44
			c-0.59,0-1.07-0.48-1.07-1.07v-29.57c0-0.59,0.48-1.07,1.07-1.07h5.44c7.83,0,14.18,7.1,14.18,15.87
			C903.64,636.37,897.29,643.48,889.46,643.48z"/>
	</g>
	<g>
		<path d="M943.54,600.53h-16.8c-1.62,0-2.94,1.32-2.94,2.94v48.25c0,1.62,1.32,2.94,2.94,2.94h16.8v0.02
			c15.24,0,27.6-12.12,27.6-27.07C971.13,612.65,958.78,600.53,943.54,600.53z M943.54,643.48v-0.02h-5.44
			c-0.59,0-1.07-0.48-1.07-1.07v-29.57c0-0.59,0.48-1.07,1.07-1.07h5.44c7.83,0,14.18,7.1,14.18,15.87
			C957.71,636.37,951.37,643.48,943.54,643.48z"/>
	</g>
	<g>
		<path d="M834.47,646.81c-6.66,0-13.31-2.53-18.38-7.6l9.07-9.07c5.13,5.13,13.48,5.13,18.61,0l9.07,9.07
			C847.78,644.28,841.12,646.81,834.47,646.81z"/>
	</g>
	<g>
		<path d="M997.25,654.68h-9.29c-1.07,0-1.94-0.87-1.94-1.94v-40.99c0-1.07,0.87-1.94,1.94-1.94h9.29c1.07,0,1.94,0.87,1.94,1.94
			v40.99C999.18,653.81,998.32,654.68,997.25,654.68z"/>
	</g>
	<g>
		<path d="M972.14,609.48v-6.83c0-1.17,0.95-2.12,2.12-2.12h36.69c1.17,0,2.12,0.95,2.12,2.12v6.83c0,1.17-0.95,2.12-2.12,2.12
			h-36.69C973.09,611.59,972.14,610.64,972.14,609.48z"/>
	</g>
</g>
<g>
	<path class="st1" d="M474,643.84h-11.02c-1.07,0-1.94-0.87-1.94-1.94v-46.86c0-1.07,0.87-1.94,1.94-1.94H474
		c1.07,0,1.94,0.87,1.94,1.94v46.86C475.93,642.98,475.07,643.84,474,643.84z"/>
</g>
<g>
	<path class="st1" d="M445.35,593v-8.27c0-1.17,0.95-2.12,2.12-2.12h42.05c1.17,0,2.12,0.95,2.12,2.12V593
		c0,1.17-0.95,2.12-2.12,2.12h-42.05C446.3,595.12,445.35,594.17,445.35,593z"/>
</g>
<g>
	<g>
		<g>
			<path class="st0" d="M832.91,460.63c-6.6,0-13.21-2.51-18.24-7.54l8.19-8.19c5.54,5.54,14.55,5.54,20.09,0l8.19,8.19
				C846.12,458.12,839.51,460.63,832.91,460.63z"/>
		</g>
	</g>
	<g>
		<g>
			<path class="st1" d="M1053.76,441.77c0.02-0.01,0.03-0.03,0.05-0.04l-0.16-0.05c-3.69-3.13-8.89-5.09-14.65-5.09
				c-0.06,0-0.12,0-0.18,0c-3.7-0.09-6.67-2.77-6.67-6.07c0-3.35,3.06-6.07,6.85-6.07c3.41,0,6.24,2.21,6.76,5.1
				c0.1,0.55,0.55,0.96,1.1,0.96h11.22c0.66,0,1.18-0.57,1.12-1.22c-0.77-8.5-9.52-15.19-20.21-15.19
				c-11.19,0-20.26,7.35-20.26,16.41c0,4.35,2.09,8.3,5.5,11.24c-0.02,0.01-0.03,0.03-0.05,0.04l0.16,0.05
				c3.69,3.13,8.89,5.09,14.65,5.09c0.06,0,0.12,0,0.18,0c3.7,0.09,6.67,2.77,6.67,6.07c0,3.35-3.06,6.07-6.85,6.07
				c-3.41,0-6.24-2.21-6.76-5.1c-0.1-0.55-0.55-0.96-1.1-0.96h-11.22c-0.66,0-1.18,0.57-1.12,1.22c0.77,8.5,9.52,15.19,20.21,15.19
				c11.19,0,20.26-7.35,20.26-16.41C1059.26,448.67,1057.17,444.71,1053.76,441.77z"/>
		</g>
	</g>
	<g>
		<g>
			<path class="st1" d="M822.74,416.04l-17.21,51.27c-0.35,1.04,0.43,2.12,1.53,2.12h10.05c0.69,0,1.31-0.44,1.53-1.1l14.27-42.5
				l14.27,42.5c0.22,0.66,0.83,1.1,1.53,1.1h10.05c1.1,0,1.88-1.08,1.53-2.12l-17.21-51.27c-0.39-1.15-1.47-1.93-2.69-1.93h-14.95
				C824.21,414.11,823.13,414.88,822.74,416.04z"/>
		</g>
	</g>
	<g>
		<g>
			<path class="st1" d="M785.31,438.66h-21.02v-23.38c0-0.65-0.52-1.17-1.17-1.17h-11.11c-0.65,0-1.17,0.52-1.17,1.17v52.98
				c0,0.65,0.52,1.17,1.17,1.17h11.11c0.65,0,1.17-0.52,1.17-1.17v-18.3h21.02v18.3c0,0.65,0.52,1.17,1.17,1.17h11.11
				c0.65,0,1.17-0.52,1.17-1.17v-52.98c0-0.65-0.52-1.17-1.17-1.17h-11.11c-0.65,0-1.17,0.52-1.17,1.17V438.66z"/>
		</g>
	</g>
	<g>
		<g>
			<path class="st1" d="M889.08,414.12h-17.16c-1.66,0-3,1.34-3,3v49.28c0,1.66,1.34,3,3,3h17.16v0.02
				c15.57,0,28.19-12.38,28.19-27.66C917.27,426.5,904.65,414.12,889.08,414.12z M889.08,457.98v-0.02h-5.56
				c-0.6,0-1.09-0.49-1.09-1.09v-30.21c0-0.6,0.49-1.09,1.09-1.09h5.56c8,0,14.48,7.26,14.48,16.21
				C903.56,450.73,897.08,457.98,889.08,457.98z"/>
		</g>
	</g>
	<g>
		<g>
			<path class="st1" d="M944.32,414.12h-17.16c-1.66,0-3,1.34-3,3v49.28c0,1.66,1.34,3,3,3h17.16v0.02
				c15.57,0,28.19-12.38,28.19-27.66C972.51,426.5,959.89,414.12,944.32,414.12z M944.32,457.98v-0.02h-5.56
				c-0.6,0-1.09-0.49-1.09-1.09v-30.21c0-0.6,0.49-1.09,1.09-1.09h5.56c8,0,14.48,7.26,14.48,16.21
				C958.8,450.73,952.32,457.98,944.32,457.98z"/>
		</g>
	</g>
	<g>
		<path class="st1" d="M999.23,469.42h-9.58c-1.07,0-1.94-0.87-1.94-1.94v-41.96c0-1.07,0.87-1.94,1.94-1.94h9.58
			c1.07,0,1.94,0.87,1.94,1.94v41.96C1001.17,468.56,1000.3,469.42,999.23,469.42z"/>
	</g>
	<g>
		<path class="st1" d="M973.54,423.29v-7.06c0-1.17,0.95-2.12,2.12-2.12h37.57c1.17,0,2.12,0.95,2.12,2.12v7.06
			c0,1.17-0.95,2.12-2.12,2.12h-37.57C974.49,425.41,973.54,424.46,973.54,423.29z"/>
	</g>
</g>
<g>
	<g id="path553_7_">
		<path d="M216.2,467.24v3.27h-13.37v10.37h10.86v3.26h-10.86V498h-4.02v-30.76H216.2z"/>
	</g>
	<g id="g563_7_" transform="translate(128.3033,16.2879)">
		<g id="path565_7_">
			<path d="M119.85,477.03c1.72-1,3.07-2.43,4.06-4.28c0.99-1.85,1.48-4,1.48-6.44c0-2.47-0.49-4.63-1.48-6.47
				c-0.99-1.84-2.33-3.26-4.04-4.26c-1.71-1-3.65-1.5-5.83-1.5c-2.18,0-4.12,0.5-5.82,1.5c-1.71,1-3.05,2.42-4.04,4.26
				c-0.99,1.84-1.48,3.99-1.48,6.47c0,2.44,0.49,4.59,1.48,6.44c0.98,1.85,2.34,3.28,4.06,4.28c1.72,1,3.66,1.5,5.8,1.5
				C116.19,478.53,118.13,478.03,119.85,477.03 M106.23,480.01c-2.35-1.34-4.21-3.21-5.58-5.61c-1.37-2.4-2.05-5.1-2.05-8.1
				s0.68-5.7,2.05-8.1c1.37-2.4,3.23-4.27,5.58-5.6c2.35-1.34,4.96-2.01,7.81-2.01c2.88,0,5.5,0.67,7.86,2.01
				c2.35,1.34,4.21,3.2,5.56,5.58c1.35,2.38,2.03,5.09,2.03,8.12c0,3.03-0.68,5.74-2.03,8.12c-1.35,2.38-3.21,4.24-5.56,5.58
				c-2.35,1.34-4.97,2.01-7.86,2.01C111.19,482.02,108.59,481.35,106.23,480.01"/>
		</g>
	</g>
	<g id="g567_7_" transform="translate(153.899,40.7107)">
		<g id="path569_7_">
			<path d="M121.59,426.53v19.46c0,2.74,0.67,4.77,2.01,6.09c1.34,1.32,3.2,1.99,5.58,1.99c2.35,0,4.2-0.66,5.54-1.99
				c1.34-1.32,2.01-3.35,2.01-6.09v-19.46h4.02v19.42c0,2.56-0.52,4.71-1.55,6.47c-1.03,1.75-2.42,3.05-4.17,3.91
				c-1.75,0.85-3.72,1.28-5.89,1.28c-2.18,0-4.14-0.43-5.89-1.28c-1.75-0.85-3.13-2.16-4.15-3.91c-1.02-1.75-1.52-3.91-1.52-6.47
				v-19.42H121.59z"/>
		</g>
	</g>
	<g id="g571_7_" transform="translate(208.8316,11.9075)">
		<g id="path573_7_">
			<path d="M125.32,486.09h-4.02l-16.15-24.49v24.49h-4.02v-30.8h4.02l16.15,24.45v-24.45h4.02V486.09z"/>
		</g>
	</g>
	<g id="g575_7_" transform="translate(240.7984,17.9617)">
		<g id="path577_7_">
			<path d="M127.49,473.57c2.09-2.1,3.13-5.05,3.13-8.85c0-3.82-1.05-6.81-3.16-8.96c-2.1-2.15-5.13-3.22-9.07-3.22h-5.56v24.18
				h5.56C122.37,476.72,125.4,475.67,127.49,473.57 M127.12,451.15c2.46,1.25,4.34,3.04,5.65,5.36c1.31,2.32,1.96,5.06,1.96,8.21
				s-0.65,5.88-1.96,8.19c-1.31,2.31-3.19,4.08-5.65,5.3c-2.46,1.22-5.36,1.83-8.72,1.83h-9.58v-30.76h9.58
				C121.75,449.27,124.66,449.9,127.12,451.15"/>
		</g>
	</g>
	<g id="g579_7_" transform="translate(274.6549,21.3709)">
		<g id="path581_7_">
			<path d="M129.79,466.52l-5.56-15.53l-5.56,15.53H129.79z M130.94,469.78h-13.42l-2.47,6.84h-4.24l11.12-30.58h4.63l11.08,30.58
				h-4.24L130.94,469.78z"/>
		</g>
	</g>
	<g id="g583_7_" transform="translate(308.4586,40.7107)">
		<g id="path585_7_">
			<path d="M132.09,426.53v3.27h-8.39v27.49h-4.02v-27.49h-8.43v-3.27H132.09z"/>
		</g>
	</g>
	<g id="path587_7_">
		<path d="M457.34,498h-4.02v-30.76h4.02V498z"/>
	</g>
	<g id="g589_7_" transform="translate(357.1168,16.2879)">
		<g id="path591_7_">
			<path d="M135.4,477.03c1.72-1,3.07-2.43,4.06-4.28c0.99-1.85,1.48-4,1.48-6.44c0-2.47-0.49-4.63-1.48-6.47
				c-0.99-1.84-2.33-3.26-4.04-4.26c-1.71-1-3.65-1.5-5.83-1.5s-4.12,0.5-5.82,1.5c-1.71,1-3.05,2.42-4.04,4.26
				c-0.99,1.84-1.48,3.99-1.48,6.47c0,2.44,0.49,4.59,1.48,6.44c0.98,1.85,2.34,3.28,4.06,4.28c1.72,1,3.66,1.5,5.8,1.5
				C131.74,478.53,133.67,478.03,135.4,477.03 M121.78,480.01c-2.35-1.34-4.21-3.21-5.58-5.61c-1.37-2.4-2.05-5.1-2.05-8.1
				s0.68-5.7,2.05-8.1c1.37-2.4,3.23-4.27,5.58-5.6c2.35-1.34,4.96-2.01,7.81-2.01c2.88,0,5.5,0.67,7.86,2.01
				c2.35,1.34,4.21,3.2,5.56,5.58c1.35,2.38,2.03,5.09,2.03,8.12c0,3.03-0.68,5.74-2.03,8.12c-1.35,2.38-3.21,4.24-5.56,5.58
				c-2.35,1.34-4.97,2.01-7.86,2.01C126.74,482.02,124.13,481.35,121.78,480.01"/>
		</g>
	</g>
	<g id="g593_7_" transform="translate(401.7223,11.9075)">
		<g id="path595_7_">
			<path d="M138.43,486.09h-4.02l-16.15-24.49v24.49h-4.02v-30.8h4.02l16.15,24.45v-24.45h4.02V486.09z"/>
		</g>
	</g>
</g>
<g>
	<g id="path553_6_">
		<path d="M216.2,654.84v3.27h-13.38v10.37h10.86v3.27h-10.86v13.86h-4.02v-30.77H216.2z"/>
	</g>
	<g id="g563_6_" transform="translate(128.3033,16.2879)">
		<g id="path565_6_">
			<path d="M119.86,664.64c1.72-1,3.07-2.43,4.06-4.28c0.99-1.85,1.48-4,1.48-6.45c0-2.47-0.49-4.63-1.48-6.47
				c-0.99-1.84-2.33-3.26-4.04-4.26c-1.71-1-3.65-1.5-5.83-1.5s-4.12,0.5-5.83,1.5c-1.71,1-3.05,2.42-4.04,4.26
				c-0.99,1.84-1.48,4-1.48,6.47c0,2.44,0.49,4.59,1.48,6.45c0.98,1.85,2.34,3.28,4.06,4.28c1.72,1,3.66,1.5,5.8,1.5
				C116.2,666.14,118.14,665.64,119.86,664.64 M106.24,667.62c-2.35-1.34-4.22-3.21-5.58-5.61c-1.37-2.4-2.05-5.1-2.05-8.1
				c0-3,0.68-5.7,2.05-8.1c1.37-2.4,3.23-4.27,5.58-5.61c2.35-1.34,4.96-2.01,7.81-2.01c2.89,0,5.5,0.67,7.86,2.01
				c2.35,1.34,4.21,3.2,5.56,5.58c1.35,2.38,2.03,5.09,2.03,8.12c0,3.03-0.68,5.74-2.03,8.12c-1.35,2.38-3.21,4.25-5.56,5.58
				c-2.35,1.34-4.97,2.01-7.86,2.01C111.2,669.63,108.6,668.96,106.24,667.62"/>
		</g>
	</g>
	<g id="g567_6_" transform="translate(153.899,40.7107)">
		<g id="path569_6_">
			<path d="M121.61,614.13v19.47c0,2.74,0.67,4.77,2.01,6.09c1.34,1.32,3.2,1.99,5.58,1.99c2.35,0,4.2-0.66,5.54-1.99
				c1.34-1.32,2.01-3.36,2.01-6.09v-19.47h4.02v19.42c0,2.56-0.52,4.72-1.55,6.47c-1.03,1.75-2.42,3.05-4.17,3.91
				c-1.75,0.85-3.72,1.28-5.89,1.28c-2.18,0-4.14-0.43-5.89-1.28c-1.75-0.85-3.13-2.16-4.15-3.91c-1.02-1.75-1.52-3.91-1.52-6.47
				v-19.42H121.61z"/>
		</g>
	</g>
	<g id="g571_6_" transform="translate(208.8316,11.9075)">
		<g id="path573_6_">
			<path d="M125.36,673.7h-4.02l-16.16-24.5v24.5h-4.02v-30.81h4.02l16.16,24.46v-24.46h4.02V673.7z"/>
		</g>
	</g>
	<g id="g575_6_" transform="translate(240.7984,17.9617)">
		<g id="path577_6_">
			<path d="M127.54,661.18c2.09-2.1,3.13-5.05,3.13-8.85c0-3.83-1.05-6.81-3.16-8.96c-2.1-2.15-5.13-3.22-9.07-3.22h-5.56v24.19
				h5.56C122.42,664.33,125.45,663.28,127.54,661.18 M127.16,638.75c2.46,1.25,4.34,3.04,5.65,5.36c1.31,2.33,1.96,5.06,1.96,8.21
				c0,3.15-0.65,5.88-1.96,8.19c-1.31,2.31-3.19,4.08-5.65,5.3c-2.46,1.22-5.36,1.83-8.72,1.83h-9.58v-30.77h9.58
				C121.8,636.87,124.71,637.5,127.16,638.75"/>
		</g>
	</g>
	<g id="g579_6_" transform="translate(274.6549,21.3709)">
		<g id="path581_6_">
			<path d="M129.85,654.12l-5.56-15.54l-5.56,15.54H129.85z M131,657.39h-13.42l-2.47,6.84h-4.24l11.13-30.59h4.63l11.08,30.59
				h-4.24L131,657.39z"/>
		</g>
	</g>
	<g id="g583_6_" transform="translate(308.4586,40.7107)">
		<g id="path585_6_">
			<path d="M132.16,614.13v3.27h-8.39v27.5h-4.02v-27.5h-8.43v-3.27H132.16z"/>
		</g>
	</g>
	<g id="path587_6_">
		<path d="M457.41,685.6h-4.02v-30.77h4.02V685.6z"/>
	</g>
	<g id="g589_6_" transform="translate(357.1168,16.2879)">
		<g id="path591_6_">
			<path d="M135.48,664.64c1.72-1,3.07-2.43,4.06-4.28c0.99-1.85,1.48-4,1.48-6.45c0-2.47-0.49-4.63-1.48-6.47
				c-0.99-1.84-2.33-3.26-4.04-4.26c-1.71-1-3.65-1.5-5.83-1.5s-4.12,0.5-5.83,1.5c-1.71,1-3.05,2.42-4.04,4.26
				c-0.99,1.84-1.48,4-1.48,6.47c0,2.44,0.49,4.59,1.48,6.45c0.98,1.85,2.34,3.28,4.06,4.28c1.72,1,3.66,1.5,5.8,1.5
				C131.82,666.14,133.76,665.64,135.48,664.64 M121.86,667.62c-2.35-1.34-4.22-3.21-5.58-5.61c-1.37-2.4-2.05-5.1-2.05-8.1
				c0-3,0.68-5.7,2.05-8.1c1.37-2.4,3.23-4.27,5.58-5.61c2.35-1.34,4.96-2.01,7.81-2.01c2.89,0,5.5,0.67,7.86,2.01
				c2.35,1.34,4.21,3.2,5.56,5.58c1.35,2.38,2.03,5.09,2.03,8.12c0,3.03-0.68,5.74-2.03,8.12c-1.35,2.38-3.21,4.25-5.56,5.58
				c-2.35,1.34-4.97,2.01-7.86,2.01C126.82,669.63,124.21,668.96,121.86,667.62"/>
		</g>
	</g>
	<g id="g593_6_" transform="translate(401.7223,11.9075)">
		<g id="path595_6_">
			<path d="M138.52,673.7h-4.02l-16.16-24.5v24.5h-4.02v-30.81h4.02l16.16,24.46v-24.46h4.02V673.7z"/>
		</g>
	</g>
</g>
<g>
	<g id="path553_5_">
		<path d="M1150.97,414.73v5.75h-23.54v18.26h19.12v5.75h-19.12v24.4h-7.07v-54.16H1150.97z"/>
	</g>
	<g id="g563_5_" transform="translate(128.3033,16.2879)">
		<g id="path565_5_">
			<path d="M1078.92,444.36c3.03-1.76,5.41-4.27,7.15-7.54c1.74-3.26,2.6-7.05,2.6-11.35c0-4.35-0.87-8.15-2.6-11.38
				c-1.74-3.24-4.11-5.74-7.11-7.5c-3-1.76-6.42-2.64-10.26-2.64s-7.25,0.88-10.26,2.64c-3,1.76-5.38,4.26-7.11,7.5
				c-1.74,3.24-2.6,7.03-2.6,11.38c0,4.3,0.87,8.08,2.6,11.35c1.73,3.26,4.12,5.78,7.15,7.54c3.03,1.76,6.44,2.64,10.22,2.64
				C1072.49,447,1075.89,446.12,1078.92,444.36 M1054.95,449.61c-4.14-2.36-7.42-5.65-9.83-9.87c-2.41-4.22-3.61-8.97-3.61-14.26
				s1.2-10.04,3.61-14.26c2.41-4.22,5.69-7.51,9.83-9.87c4.14-2.36,8.73-3.53,13.75-3.53c5.08,0,9.69,1.18,13.83,3.53
				c4.14,2.36,7.41,5.63,9.79,9.83c2.38,4.2,3.57,8.96,3.57,14.3c0,5.34-1.19,10.1-3.57,14.3c-2.38,4.19-5.65,7.47-9.79,9.83
				c-4.14,2.36-8.75,3.53-13.83,3.53C1063.68,453.14,1059.1,451.96,1054.95,449.61"/>
		</g>
	</g>
	<g id="g567_5_" transform="translate(153.899,40.7107)">
		<g id="path569_5_">
			<path d="M1101.46,374.02v34.27c0,4.82,1.18,8.39,3.54,10.72c2.36,2.33,5.63,3.5,9.83,3.5c4.14,0,7.39-1.17,9.75-3.5
				c2.36-2.33,3.54-5.91,3.54-10.72v-34.27h7.07v34.19c0,4.51-0.91,8.3-2.72,11.38c-1.81,3.08-4.26,5.37-7.34,6.88
				c-3.08,1.5-6.54,2.25-10.37,2.25c-3.84,0-7.29-0.75-10.37-2.25c-3.08-1.5-5.52-3.79-7.3-6.88c-1.79-3.08-2.68-6.88-2.68-11.38
				v-34.19H1101.46z"/>
		</g>
	</g>
	<g id="g571_5_" transform="translate(208.8316,11.9075)">
		<g id="path573_5_">
			<path d="M1149.81,456.98h-7.07l-28.44-43.12v43.12h-7.07v-54.24h7.07l28.44,43.05v-43.05h7.07V456.98z"/>
		</g>
	</g>
	<g id="g575_5_" transform="translate(240.7984,17.9617)">
		<g id="path577_5_">
			<path d="M1177.95,439.54c3.68-3.7,5.52-8.9,5.52-15.58c0-6.73-1.85-11.99-5.56-15.77c-3.7-3.78-9.03-5.67-15.97-5.67h-9.79v42.58
				h9.79C1168.94,445.1,1174.28,443.25,1177.95,439.54 M1177.29,400.07c4.33,2.2,7.64,5.35,9.95,9.44
				c2.31,4.09,3.46,8.91,3.46,14.45c0,5.54-1.15,10.35-3.46,14.41c-2.31,4.07-5.62,7.18-9.95,9.32c-4.32,2.15-9.44,3.22-15.35,3.22
				h-16.86v-54.16h16.86C1167.85,396.77,1172.97,397.87,1177.29,400.07"/>
		</g>
	</g>
	<g id="g579_5_" transform="translate(274.6549,21.3709)">
		<g id="path581_5_">
			<path d="M1207.76,429.72l-9.79-27.35l-9.79,27.35H1207.76z M1209.78,435.47h-23.62l-4.35,12.04h-7.46l19.58-53.85h8.16
				l19.5,53.85h-7.46L1209.78,435.47z"/>
		</g>
	</g>
	<g id="g583_5_" transform="translate(308.4586,40.7107)">
		<g id="path585_5_">
			<path d="M1237.51,374.02v5.75h-14.76v48.41h-7.07v-48.41h-14.84v-5.75H1237.51z"/>
		</g>
	</g>
	<g id="path587_5_">
		<path d="M1575.54,468.89h-7.07v-54.16h7.07V468.89z"/>
	</g>
	<g id="g589_5_" transform="translate(357.1168,16.2879)">
		<g id="path591_5_">
			<path d="M1280.35,444.36c3.03-1.76,5.41-4.27,7.15-7.54c1.74-3.26,2.6-7.05,2.6-11.35c0-4.35-0.87-8.15-2.6-11.38
				c-1.74-3.24-4.11-5.74-7.11-7.5c-3-1.76-6.42-2.64-10.26-2.64s-7.25,0.88-10.26,2.64c-3,1.76-5.38,4.26-7.11,7.5
				c-1.74,3.24-2.6,7.03-2.6,11.38c0,4.3,0.87,8.08,2.6,11.35c1.73,3.26,4.12,5.78,7.15,7.54c3.03,1.76,6.44,2.64,10.22,2.64
				C1273.91,447,1277.32,446.12,1280.35,444.36 M1256.38,449.61c-4.14-2.36-7.42-5.65-9.83-9.87c-2.41-4.22-3.61-8.97-3.61-14.26
				s1.2-10.04,3.61-14.26c2.41-4.22,5.69-7.51,9.83-9.87c4.14-2.36,8.73-3.53,13.75-3.53c5.08,0,9.69,1.18,13.83,3.53
				c4.14,2.36,7.41,5.63,9.79,9.83c2.38,4.2,3.57,8.96,3.57,14.3c0,5.34-1.19,10.1-3.57,14.3c-2.38,4.19-5.65,7.47-9.79,9.83
				c-4.14,2.36-8.75,3.53-13.83,3.53C1265.11,453.14,1260.52,451.96,1256.38,449.61"/>
		</g>
	</g>
	<g id="g593_5_" transform="translate(401.7223,11.9075)">
		<g id="path595_5_">
			<path d="M1319.62,456.98h-7.07l-28.44-43.12v43.12h-7.07v-54.24h7.07l28.44,43.05v-43.05h7.07V456.98z"/>
		</g>
	</g>
</g>
<g>
	<g id="path553_3_">
		<path d="M1150.97,600.52v5.75h-23.54v18.26h19.12v5.75h-19.12v24.4h-7.07v-54.16H1150.97z"/>
	</g>
	<g id="g563_3_" transform="translate(128.3033,16.2879)">
		<g id="path565_3_">
			<path d="M1078.92,630.16c3.03-1.76,5.41-4.27,7.15-7.54c1.74-3.26,2.6-7.05,2.6-11.35c0-4.35-0.87-8.15-2.6-11.38
				c-1.74-3.24-4.11-5.74-7.11-7.5c-3-1.76-6.42-2.64-10.26-2.64s-7.25,0.88-10.26,2.64c-3,1.76-5.38,4.26-7.11,7.5
				c-1.74,3.24-2.6,7.03-2.6,11.38c0,4.3,0.87,8.08,2.6,11.35c1.73,3.26,4.12,5.78,7.15,7.54c3.03,1.76,6.44,2.64,10.22,2.64
				C1072.49,632.8,1075.89,631.92,1078.92,630.16 M1054.95,635.4c-4.14-2.36-7.42-5.65-9.83-9.87c-2.41-4.22-3.61-8.97-3.61-14.26
				c0-5.28,1.2-10.04,3.61-14.26c2.41-4.22,5.69-7.51,9.83-9.87c4.14-2.36,8.73-3.53,13.75-3.53c5.08,0,9.69,1.18,13.83,3.53
				c4.14,2.36,7.41,5.63,9.79,9.83c2.38,4.2,3.57,8.96,3.57,14.3c0,5.34-1.19,10.1-3.57,14.3c-2.38,4.2-5.65,7.47-9.79,9.83
				c-4.14,2.36-8.75,3.53-13.83,3.53C1063.68,638.94,1059.1,637.76,1054.95,635.4"/>
		</g>
	</g>
	<g id="g567_3_" transform="translate(153.899,40.7107)">
		<g id="path569_3_">
			<path d="M1101.46,559.81v34.27c0,4.82,1.18,8.39,3.54,10.72c2.36,2.33,5.63,3.5,9.83,3.5c4.14,0,7.39-1.17,9.75-3.5
				c2.36-2.33,3.54-5.91,3.54-10.72v-34.27h7.07V594c0,4.51-0.91,8.3-2.72,11.38c-1.81,3.08-4.26,5.37-7.34,6.88
				c-3.08,1.5-6.54,2.25-10.37,2.25c-3.84,0-7.29-0.75-10.37-2.25c-3.08-1.5-5.52-3.79-7.3-6.88c-1.79-3.08-2.68-6.88-2.68-11.38
				v-34.19H1101.46z"/>
		</g>
	</g>
	<g id="g571_3_" transform="translate(208.8316,11.9075)">
		<g id="path573_3_">
			<path d="M1149.81,642.77h-7.07l-28.44-43.12v43.12h-7.07v-54.24h7.07l28.44,43.05v-43.05h7.07V642.77z"/>
		</g>
	</g>
	<g id="g575_3_" transform="translate(240.7984,17.9617)">
		<g id="path577_3_">
			<path d="M1177.95,625.34c3.68-3.7,5.52-8.9,5.52-15.58c0-6.73-1.85-11.99-5.56-15.77c-3.7-3.78-9.03-5.67-15.97-5.67h-9.79v42.58
				h9.79C1168.94,630.89,1174.28,629.04,1177.95,625.34 M1177.29,585.86c4.33,2.2,7.64,5.35,9.95,9.44
				c2.31,4.09,3.46,8.91,3.46,14.45c0,5.54-1.15,10.35-3.46,14.41c-2.31,4.07-5.62,7.18-9.95,9.32c-4.32,2.15-9.44,3.22-15.35,3.22
				h-16.86v-54.16h16.86C1167.85,582.56,1172.97,583.66,1177.29,585.86"/>
		</g>
	</g>
	<g id="g579_3_" transform="translate(274.6549,21.3709)">
		<g id="path581_3_">
			<path d="M1207.76,615.52l-9.79-27.35l-9.79,27.35H1207.76z M1209.78,621.27h-23.62l-4.35,12.04h-7.46l19.58-53.85h8.16
				l19.5,53.85h-7.46L1209.78,621.27z"/>
		</g>
	</g>
	<g id="g583_3_" transform="translate(308.4586,40.7107)">
		<g id="path585_3_">
			<path d="M1237.51,559.81v5.75h-14.76v48.41h-7.07v-48.41h-14.84v-5.75H1237.51z"/>
		</g>
	</g>
	<g id="path587_3_">
		<path d="M1575.54,654.68h-7.07v-54.16h7.07V654.68z"/>
	</g>
	<g id="g589_3_" transform="translate(357.1168,16.2879)">
		<g id="path591_3_">
			<path d="M1280.35,630.16c3.03-1.76,5.41-4.27,7.15-7.54c1.74-3.26,2.6-7.05,2.6-11.35c0-4.35-0.87-8.15-2.6-11.38
				c-1.74-3.24-4.11-5.74-7.11-7.5c-3-1.76-6.42-2.64-10.26-2.64s-7.25,0.88-10.26,2.64c-3,1.76-5.38,4.26-7.11,7.5
				c-1.74,3.24-2.6,7.03-2.6,11.38c0,4.3,0.87,8.08,2.6,11.35c1.73,3.26,4.12,5.78,7.15,7.54c3.03,1.76,6.44,2.64,10.22,2.64
				C1273.91,632.8,1277.32,631.92,1280.35,630.16 M1256.38,635.4c-4.14-2.36-7.42-5.65-9.83-9.87c-2.41-4.22-3.61-8.97-3.61-14.26
				c0-5.28,1.2-10.04,3.61-14.26c2.41-4.22,5.69-7.51,9.83-9.87c4.14-2.36,8.73-3.53,13.75-3.53c5.08,0,9.69,1.18,13.83,3.53
				c4.14,2.36,7.41,5.63,9.79,9.83c2.38,4.2,3.57,8.96,3.57,14.3c0,5.34-1.19,10.1-3.57,14.3c-2.38,4.2-5.65,7.47-9.79,9.83
				c-4.14,2.36-8.75,3.53-13.83,3.53C1265.11,638.94,1260.52,637.76,1256.38,635.4"/>
		</g>
	</g>
	<g id="g593_3_" transform="translate(401.7223,11.9075)">
		<g id="path595_3_">
			<path d="M1319.62,642.77h-7.07l-28.44-43.12v43.12h-7.07v-54.24h7.07l28.44,43.05v-43.05h7.07V642.77z"/>
		</g>
	</g>
</g>
</svg>
