<?xml version="1.0" encoding="UTF-8" standalone="no"?>
<!-- Created with Inkscape (http://www.inkscape.org/) -->

<svg
   width="256.77872mm"
   height="14.639581mm"
   viewBox="0 0 256.77872 14.639581"
   version="1.1"
   id="svg1109"
   inkscape:version="1.2 (dc2aeda, 2022-05-15)"
   sodipodi:docname="logo-horiz-colored.svg"
   inkscape:export-filename="logo-horiz-colored.png"
   inkscape:export-xdpi="96"
   inkscape:export-ydpi="96"
   xmlns:inkscape="http://www.inkscape.org/namespaces/inkscape"
   xmlns:sodipodi="http://sodipodi.sourceforge.net/DTD/sodipodi-0.dtd"
   xmlns="http://www.w3.org/2000/svg"
   xmlns:svg="http://www.w3.org/2000/svg">
  <sodipodi:namedview
     id="namedview1111"
     pagecolor="#ffffff"
     bordercolor="#000000"
     borderopacity="0.25"
     inkscape:showpageshadow="2"
     inkscape:pageopacity="0.0"
     inkscape:pagecheckerboard="0"
     inkscape:deskcolor="#d1d1d1"
     inkscape:document-units="mm"
     showgrid="false"
     inkscape:zoom="0.2102413"
     inkscape:cx="523.20833"
     inkscape:cy="38.051515"
     inkscape:window-width="1309"
     inkscape:window-height="456"
     inkscape:window-x="49"
     inkscape:window-y="38"
     inkscape:window-maximized="0"
     inkscape:current-layer="layer1" />
  <defs
     id="defs1106" />
  <g
     inkscape:label="Layer 1"
     inkscape:groupmode="layer"
     id="layer1"
     transform="translate(34.003773,-138.66326)">
    <g
       id="g158"
       transform="matrix(0.26458333,0,0,0.26458333,-232.66352,29.099303)">
	<g
   id="g118">
		<g
   id="g116">
			<path
   class="st0"
   d="m 832.91,460.63 c -6.6,0 -13.21,-2.51 -18.24,-7.54 l 8.19,-8.19 c 5.54,5.54 14.55,5.54 20.09,0 l 8.19,8.19 c -5.02,5.03 -11.63,7.54 -18.23,7.54 z"
   id="path114"
   style="fill:#03e2f2" />

		</g>

	</g>

	<g
   id="g124">
		<g
   id="g122">
			<path
   class="st1"
   d="m 1053.76,441.77 c 0.02,-0.01 0.03,-0.03 0.05,-0.04 l -0.16,-0.05 c -3.69,-3.13 -8.89,-5.09 -14.65,-5.09 -0.06,0 -0.12,0 -0.18,0 -3.7,-0.09 -6.67,-2.77 -6.67,-6.07 0,-3.35 3.06,-6.07 6.85,-6.07 3.41,0 6.24,2.21 6.76,5.1 0.1,0.55 0.55,0.96 1.1,0.96 h 11.22 c 0.66,0 1.18,-0.57 1.12,-1.22 -0.77,-8.5 -9.52,-15.19 -20.21,-15.19 -11.19,0 -20.26,7.35 -20.26,16.41 0,4.35 2.09,8.3 5.5,11.24 -0.02,0.01 -0.03,0.03 -0.05,0.04 l 0.16,0.05 c 3.69,3.13 8.89,5.09 14.65,5.09 0.06,0 0.12,0 0.18,0 3.7,0.09 6.67,2.77 6.67,6.07 0,3.35 -3.06,6.07 -6.85,6.07 -3.41,0 -6.24,-2.21 -6.76,-5.1 -0.1,-0.55 -0.55,-0.96 -1.1,-0.96 h -11.22 c -0.66,0 -1.18,0.57 -1.12,1.22 0.77,8.5 9.52,15.19 20.21,15.19 11.19,0 20.26,-7.35 20.26,-16.41 0,-4.34 -2.09,-8.3 -5.5,-11.24 z"
   id="path120"
   style="fill:#002255" />

		</g>

	</g>

	<g
   id="g130">
		<g
   id="g128">
			<path
   class="st1"
   d="m 822.74,416.04 -17.21,51.27 c -0.35,1.04 0.43,2.12 1.53,2.12 h 10.05 c 0.69,0 1.31,-0.44 1.53,-1.1 l 14.27,-42.5 14.27,42.5 c 0.22,0.66 0.83,1.1 1.53,1.1 h 10.05 c 1.1,0 1.88,-1.08 1.53,-2.12 l -17.21,-51.27 c -0.39,-1.15 -1.47,-1.93 -2.69,-1.93 h -14.95 c -1.23,0 -2.31,0.77 -2.7,1.93 z"
   id="path126"
   style="fill:#002255" />

		</g>

	</g>

	<g
   id="g136">
		<g
   id="g134">
			<path
   class="st1"
   d="m 785.31,438.66 h -21.02 v -23.38 c 0,-0.65 -0.52,-1.17 -1.17,-1.17 h -11.11 c -0.65,0 -1.17,0.52 -1.17,1.17 v 52.98 c 0,0.65 0.52,1.17 1.17,1.17 h 11.11 c 0.65,0 1.17,-0.52 1.17,-1.17 v -18.3 h 21.02 v 18.3 c 0,0.65 0.52,1.17 1.17,1.17 h 11.11 c 0.65,0 1.17,-0.52 1.17,-1.17 v -52.98 c 0,-0.65 -0.52,-1.17 -1.17,-1.17 h -11.11 c -0.65,0 -1.17,0.52 -1.17,1.17 z"
   id="path132"
   style="fill:#002255" />

		</g>

	</g>

	<g
   id="g142">
		<g
   id="g140">
			<path
   class="st1"
   d="m 889.08,414.12 h -17.16 c -1.66,0 -3,1.34 -3,3 v 49.28 c 0,1.66 1.34,3 3,3 h 17.16 v 0.02 c 15.57,0 28.19,-12.38 28.19,-27.66 0,-15.26 -12.62,-27.64 -28.19,-27.64 z m 0,43.86 v -0.02 h -5.56 c -0.6,0 -1.09,-0.49 -1.09,-1.09 v -30.21 c 0,-0.6 0.49,-1.09 1.09,-1.09 h 5.56 c 8,0 14.48,7.26 14.48,16.21 0,8.95 -6.48,16.2 -14.48,16.2 z"
   id="path138"
   style="fill:#002255" />

		</g>

	</g>

	<g
   id="g148">
		<g
   id="g146">
			<path
   class="st1"
   d="m 944.32,414.12 h -17.16 c -1.66,0 -3,1.34 -3,3 v 49.28 c 0,1.66 1.34,3 3,3 h 17.16 v 0.02 c 15.57,0 28.19,-12.38 28.19,-27.66 0,-15.26 -12.62,-27.64 -28.19,-27.64 z m 0,43.86 v -0.02 h -5.56 c -0.6,0 -1.09,-0.49 -1.09,-1.09 v -30.21 c 0,-0.6 0.49,-1.09 1.09,-1.09 h 5.56 c 8,0 14.48,7.26 14.48,16.21 0,8.95 -6.48,16.2 -14.48,16.2 z"
   id="path144"
   style="fill:#002255" />

		</g>

	</g>

	<g
   id="g152">
		<path
   class="st1"
   d="m 999.23,469.42 h -9.58 c -1.07,0 -1.94,-0.87 -1.94,-1.94 v -41.96 c 0,-1.07 0.87,-1.94 1.94,-1.94 h 9.58 c 1.07,0 1.94,0.87 1.94,1.94 v 41.96 c 0,1.08 -0.87,1.94 -1.94,1.94 z"
   id="path150"
   style="fill:#002255" />

	</g>

	<g
   id="g156">
		<path
   class="st1"
   d="m 973.54,423.29 v -7.06 c 0,-1.17 0.95,-2.12 2.12,-2.12 h 37.57 c 1.17,0 2.12,0.95 2.12,2.12 v 7.06 c 0,1.17 -0.95,2.12 -2.12,2.12 h -37.57 c -1.17,0 -2.12,-0.95 -2.12,-2.12 z"
   id="path154"
   style="fill:#002255" />

	</g>

</g>
    <g
       id="g278"
       transform="matrix(0.26458333,0,0,0.26458333,-232.66352,29.099303)">
	<g
   id="path553_5_">
		<path
   d="m 1150.97,414.73 v 5.75 h -23.54 v 18.26 h 19.12 v 5.75 h -19.12 v 24.4 h -7.07 v -54.16 z"
   id="path240" />

	</g>

	<g
   id="g563_5_"
   transform="translate(128.3033,16.2879)">
		<g
   id="path565_5_">
			<path
   d="m 1078.92,444.36 c 3.03,-1.76 5.41,-4.27 7.15,-7.54 1.74,-3.26 2.6,-7.05 2.6,-11.35 0,-4.35 -0.87,-8.15 -2.6,-11.38 -1.74,-3.24 -4.11,-5.74 -7.11,-7.5 -3,-1.76 -6.42,-2.64 -10.26,-2.64 -3.84,0 -7.25,0.88 -10.26,2.64 -3,1.76 -5.38,4.26 -7.11,7.5 -1.74,3.24 -2.6,7.03 -2.6,11.38 0,4.3 0.87,8.08 2.6,11.35 1.73,3.26 4.12,5.78 7.15,7.54 3.03,1.76 6.44,2.64 10.22,2.64 3.79,0 7.19,-0.88 10.22,-2.64 m -23.97,5.25 c -4.14,-2.36 -7.42,-5.65 -9.83,-9.87 -2.41,-4.22 -3.61,-8.97 -3.61,-14.26 0,-5.29 1.2,-10.04 3.61,-14.26 2.41,-4.22 5.69,-7.51 9.83,-9.87 4.14,-2.36 8.73,-3.53 13.75,-3.53 5.08,0 9.69,1.18 13.83,3.53 4.14,2.36 7.41,5.63 9.79,9.83 2.38,4.2 3.57,8.96 3.57,14.3 0,5.34 -1.19,10.1 -3.57,14.3 -2.38,4.19 -5.65,7.47 -9.79,9.83 -4.14,2.36 -8.75,3.53 -13.83,3.53 -5.02,0 -9.6,-1.18 -13.75,-3.53"
   id="path243" />

		</g>

	</g>

	<g
   id="g567_5_"
   transform="translate(153.899,40.7107)">
		<g
   id="path569_5_">
			<path
   d="m 1101.46,374.02 v 34.27 c 0,4.82 1.18,8.39 3.54,10.72 2.36,2.33 5.63,3.5 9.83,3.5 4.14,0 7.39,-1.17 9.75,-3.5 2.36,-2.33 3.54,-5.91 3.54,-10.72 v -34.27 h 7.07 v 34.19 c 0,4.51 -0.91,8.3 -2.72,11.38 -1.81,3.08 -4.26,5.37 -7.34,6.88 -3.08,1.5 -6.54,2.25 -10.37,2.25 -3.84,0 -7.29,-0.75 -10.37,-2.25 -3.08,-1.5 -5.52,-3.79 -7.3,-6.88 -1.79,-3.08 -2.68,-6.88 -2.68,-11.38 v -34.19 z"
   id="path247" />

		</g>

	</g>

	<g
   id="g571_5_"
   transform="translate(208.8316,11.9075)">
		<g
   id="path573_5_">
			<path
   d="m 1149.81,456.98 h -7.07 l -28.44,-43.12 v 43.12 h -7.07 v -54.24 h 7.07 l 28.44,43.05 v -43.05 h 7.07 z"
   id="path251" />

		</g>

	</g>

	<g
   id="g575_5_"
   transform="translate(240.7984,17.9617)">
		<g
   id="path577_5_">
			<path
   d="m 1177.95,439.54 c 3.68,-3.7 5.52,-8.9 5.52,-15.58 0,-6.73 -1.85,-11.99 -5.56,-15.77 -3.7,-3.78 -9.03,-5.67 -15.97,-5.67 h -9.79 v 42.58 h 9.79 c 7,0 12.34,-1.85 16.01,-5.56 m -0.66,-39.47 c 4.33,2.2 7.64,5.35 9.95,9.44 2.31,4.09 3.46,8.91 3.46,14.45 0,5.54 -1.15,10.35 -3.46,14.41 -2.31,4.07 -5.62,7.18 -9.95,9.32 -4.32,2.15 -9.44,3.22 -15.35,3.22 h -16.86 v -54.16 h 16.86 c 5.91,0.02 11.03,1.12 15.35,3.32"
   id="path255" />

		</g>

	</g>

	<g
   id="g579_5_"
   transform="translate(274.6549,21.3709)">
		<g
   id="path581_5_">
			<path
   d="m 1207.76,429.72 -9.79,-27.35 -9.79,27.35 z m 2.02,5.75 h -23.62 l -4.35,12.04 h -7.46 l 19.58,-53.85 h 8.16 l 19.5,53.85 h -7.46 z"
   id="path259" />

		</g>

	</g>

	<g
   id="g583_5_"
   transform="translate(308.4586,40.7107)">
		<g
   id="path585_5_">
			<path
   d="m 1237.51,374.02 v 5.75 h -14.76 v 48.41 h -7.07 v -48.41 h -14.84 v -5.75 z"
   id="path263" />

		</g>

	</g>

	<g
   id="path587_5_">
		<path
   d="m 1575.54,468.89 h -7.07 v -54.16 h 7.07 z"
   id="path267" />

	</g>

	<g
   id="g589_5_"
   transform="translate(357.1168,16.2879)">
		<g
   id="path591_5_">
			<path
   d="m 1280.35,444.36 c 3.03,-1.76 5.41,-4.27 7.15,-7.54 1.74,-3.26 2.6,-7.05 2.6,-11.35 0,-4.35 -0.87,-8.15 -2.6,-11.38 -1.74,-3.24 -4.11,-5.74 -7.11,-7.5 -3,-1.76 -6.42,-2.64 -10.26,-2.64 -3.84,0 -7.25,0.88 -10.26,2.64 -3,1.76 -5.38,4.26 -7.11,7.5 -1.74,3.24 -2.6,7.03 -2.6,11.38 0,4.3 0.87,8.08 2.6,11.35 1.73,3.26 4.12,5.78 7.15,7.54 3.03,1.76 6.44,2.64 10.22,2.64 3.78,0 7.19,-0.88 10.22,-2.64 m -23.97,5.25 c -4.14,-2.36 -7.42,-5.65 -9.83,-9.87 -2.41,-4.22 -3.61,-8.97 -3.61,-14.26 0,-5.29 1.2,-10.04 3.61,-14.26 2.41,-4.22 5.69,-7.51 9.83,-9.87 4.14,-2.36 8.73,-3.53 13.75,-3.53 5.08,0 9.69,1.18 13.83,3.53 4.14,2.36 7.41,5.63 9.79,9.83 2.38,4.2 3.57,8.96 3.57,14.3 0,5.34 -1.19,10.1 -3.57,14.3 -2.38,4.19 -5.65,7.47 -9.79,9.83 -4.14,2.36 -8.75,3.53 -13.83,3.53 -5.02,0 -9.61,-1.18 -13.75,-3.53"
   id="path270" />

		</g>

	</g>

	<g
   id="g593_5_"
   transform="translate(401.7223,11.9075)">
		<g
   id="path595_5_">
			<path
   d="m 1319.62,456.98 h -7.07 l -28.44,-43.12 v 43.12 h -7.07 v -54.24 h 7.07 l 28.44,43.05 v -43.05 h 7.07 z"
   id="path274" />

		</g>

	</g>

</g>
  </g>
</svg>
