<svg width="90.34198mm" height="27.336935mm" viewBox="0 0 90.34198 27.336935" version="1.1" xmlns="http://www.w3.org/2000/svg">
  <g transform="translate(-47.956128,-110.92051)">
    <g transform="matrix(0.26458333,0,0,0.26458333,-4.6430376,-43.225734)">
      <!-- Brand Icon (Cyan) -->
      <path d="m 289.66,634.11 c -7.31,0 -14.62,-2.78 -20.19,-8.35 l 9.07,-9.07 c 6.13,6.13 16.11,6.13 22.24,0 l 9.07,9.07 c -5.57,5.57 -12.88,8.35 -20.19,8.35 z" style="fill:#03e2f2" />

      <!-- Wordmark and Secondary Elements (White for Dark Mode) -->
      <path d="m 534.16,613.23 c 0.02,-0.01 0.04,-0.03 0.05,-0.04 l -0.18,-0.06 c -4.08,-3.47 -9.84,-5.63 -16.22,-5.63 -0.07,0 -0.13,0 -0.2,0 -4.09,-0.1 -7.38,-3.06 -7.38,-6.72 0,-3.71 3.39,-6.71 7.58,-6.71 3.78,0 6.91,2.45 7.49,5.65 0.11,0.61 0.61,1.07 1.22,1.07 h 12.43 c 0.73,0 1.3,-0.63 1.24,-1.35 -0.85,-9.41 -10.54,-16.82 -22.37,-16.82 -12.39,0 -22.43,8.13 -22.43,18.17 0,4.81 2.32,9.19 6.09,12.44 -0.02,0.02 -0.04,0.03 -0.05,0.04 l 0.18,0.06 c 4.08,3.47 9.84,5.63 16.22,5.63 0.07,0 0.13,0 0.2,0 4.09,0.1 7.38,3.06 7.38,6.72 0,3.71 -3.39,6.71 -7.58,6.71 -3.78,0 -6.91,-2.45 -7.49,-5.65 -0.11,-0.61 -0.61,-1.07 -1.22,-1.07 h -12.43 c -0.73,0 -1.3,0.63 -1.24,1.35 0.85,9.41 10.54,16.82 22.37,16.82 12.39,0 22.43,-8.13 22.43,-18.17 -0.01,-4.81 -2.32,-9.18 -6.09,-12.44 z" style="fill:#ffffff" />
      <path d="m 278.41,584.74 -19.05,56.76 c -0.39,1.15 0.47,2.35 1.69,2.35 h 11.13 c 0.77,0 1.45,-0.49 1.69,-1.21 l 15.79,-47.05 15.79,47.05 c 0.24,0.73 0.92,1.21 1.69,1.21 h 11.13 c 1.22,0 2.08,-1.19 1.69,-2.35 l -19.05,-56.76 c -0.43,-1.28 -1.63,-2.14 -2.97,-2.14 h -16.56 c -1.34,0 -2.54,0.87 -2.97,2.14 z" style="fill:#ffffff" />
      <path d="M 236.97,609.79 H 213.7 V 583.9 c 0,-0.72 -0.58,-1.3 -1.3,-1.3 h -12.3 c -0.72,0 -1.3,0.58 -1.3,1.3 v 58.65 c 0,0.72 0.58,1.3 1.3,1.3 h 12.3 c 0.72,0 1.3,-0.58 1.3,-1.3 v -20.26 h 23.27 v 20.26 c 0,0.72 0.58,1.3 1.3,1.3 h 12.3 c 0.72,0 1.3,-0.58 1.3,-1.3 V 583.9 c 0,-0.72 -0.58,-1.3 -1.3,-1.3 h -12.3 c -0.72,0 -1.3,0.58 -1.3,1.3 z" style="fill:#ffffff" />
      <path d="m 351.85,582.62 h -19 c -1.84,0 -3.33,1.49 -3.33,3.33 v 54.56 c 0,1.84 1.49,3.33 3.33,3.33 h 19 v 0.02 c 17.24,0 31.21,-13.71 31.21,-30.62 0,-16.92 -13.97,-30.62 -31.21,-30.62 z m 0,48.56 v -0.02 h -6.15 c -0.67,0 -1.21,-0.54 -1.21,-1.21 V 596.5 c 0,-0.67 0.54,-1.21 1.21,-1.21 h 6.15 c 8.85,0 16.03,8.03 16.03,17.94 0,9.91 -7.17,17.95 -16.03,17.95 z" style="fill:#ffffff" />
      <path d="m 413,582.62 h -19 c -1.84,0 -3.33,1.49 -3.33,3.33 v 54.56 c 0,1.84 1.49,3.33 3.33,3.33 h 19 v 0.02 c 17.24,0 31.21,-13.71 31.21,-30.62 0,-16.92 -13.97,-30.62 -31.21,-30.62 z m 0,48.56 v -0.02 h -6.15 c -0.67,0 -1.21,-0.54 -1.21,-1.21 V 596.5 c 0,-0.67 0.54,-1.21 1.21,-1.21 H 413 c 8.85,0 16.03,8.03 16.03,17.94 0,9.91 -7.17,17.95 -16.03,17.95 z" style="fill:#ffffff" />
      <path d="m 474,643.84 h -11.02 c -1.07,0 -1.94,-0.87 -1.94,-1.94 v -46.86 c 0,-1.07 0.87,-1.94 1.94,-1.94 H 474 c 1.07,0 1.94,0.87 1.94,1.94 v 46.86 c -0.01,1.08 -0.87,1.94 -1.94,1.94 z" style="fill:#ffffff" />
      <path d="m 445.35,593 v -8.27 c 0,-1.17 0.95,-2.12 2.12,-2.12 h 42.05 c 1.17,0 2.12,0.95 2.12,2.12 V 593 c 0,1.17 -0.95,2.12 -2.12,2.12 h -42.05 c -1.17,0 -2.12,-0.95 -2.12,-2.12 z" style="fill:#ffffff" />
      <path d="m 216.2,654.84 v 3.27 h -13.38 v 10.37 h 10.86 v 3.27 h -10.86 v 13.86 h -4.02 v -30.77 z" style="fill:#ffffff" />
      <path d="m 248.1633,680.9279 c 1.72,-1 3.07,-2.43 4.06,-4.28 0.99,-1.85 1.48,-4 1.48,-6.45 0,-2.47 -0.49,-4.63 -1.48,-6.47 -0.99,-1.84 -2.33,-3.26 -4.04,-4.26 -1.71,-1 -3.65,-1.5 -5.83,-1.5 -2.18,0 -4.12,0.5 -5.83,1.5 -1.71,1 -3.05,2.42 -4.04,4.26 -0.99,1.84 -1.48,4 -1.48,6.47 0,2.44 0.49,4.59 1.48,6.45 0.98,1.85 2.34,3.28 4.06,4.28 1.72,1 3.66,1.5 5.8,1.5 2.16,0 4.1,-0.5 5.82,-1.5 m -13.62,2.98 c -2.35,-1.34 -4.22,-3.21 -5.58,-5.61 -1.37,-2.4 -2.05,-5.1 -2.05,-8.1 0,-3 0.68,-5.7 2.05,-8.1 1.37,-2.4 3.23,-4.27 5.58,-5.61 2.35,-1.34 4.96,-2.01 7.81,-2.01 2.89,0 5.5,0.67 7.86,2.01 2.35,1.34 4.21,3.2 5.56,5.58 1.35,2.38 2.03,5.09 2.03,8.12 0,3.03 -0.68,5.74 -2.03,8.12 -1.35,2.38 -3.21,4.25 -5.56,5.58 -2.35,1.34 -4.97,2.01 -7.86,2.01 -2.85,0.02 -5.45,-0.65 -7.81,-1.99" style="fill:#ffffff" />
      <path d="m 275.509,654.8407 v 19.47 c 0,2.74 0.67,4.77 2.01,6.09 1.34,1.32 3.2,1.99 5.58,1.99 2.35,0 4.2,-0.66 5.54,-1.99 1.34,-1.32 2.01,-3.36 2.01,-6.09 v -19.47 h 4.02 v 19.42 c 0,2.56 -0.52,4.72 -1.55,6.47 -1.03,1.75 -2.42,3.05 -4.17,3.91 -1.75,0.85 -3.72,1.28 -5.89,1.28 -2.18,0 -4.14,-0.43 -5.89,-1.28 -1.75,-0.85 -3.13,-2.16 -4.15,-3.91 -1.02,-1.75 -1.52,-3.91 -1.52,-6.47 v -19.42 z" style="fill:#ffffff" />
      <path d="m 334.1916,685.6075 h -4.02 l -16.16,-24.5 v 24.5 h -4.02 v -30.81 h 4.02 l 16.16,24.46 v -24.46 h 4.02 z" style="fill:#ffffff" />
      <path d="m 368.3384,679.1417 c 2.09,-2.1 3.13,-5.05 3.13,-8.85 0,-3.83 -1.05,-6.81 -3.16,-8.96 -2.1,-2.15 -5.13,-3.22 -9.07,-3.22 h -5.56 v 24.19 h 5.56 c 3.98,-0.01 7.01,-1.06 9.1,-3.16 m -0.38,-22.43 c 2.46,1.25 4.34,3.04 5.65,5.36 1.31,2.33 1.96,5.06 1.96,8.21 0,3.15 -0.65,5.88 -1.96,8.19 -1.31,2.31 -3.19,4.08 -5.65,5.3 -2.46,1.22 -5.36,1.83 -8.72,1.83 h -9.58 v -30.77 h 9.58 c 3.36,0 6.27,0.63 8.72,1.88" style="fill:#ffffff" />
      <path d="m 404.5049,675.4909 -5.56,-15.54 -5.56,15.54 z m 1.15,3.27 h -13.42 l -2.47,6.84 h -4.24 L 396.6549,655.0109 h 4.63 l 11.08,30.59 h -4.24 z" style="fill:#ffffff" />
      <path d="m 440.6186,654.8407 v 3.27 h -8.39 v 27.5 h -4.02 v -27.5 h -8.43 v -3.27 z" style="fill:#ffffff" />
      <path d="m 457.41,685.6 h -4.02 v -30.77 h 4.02 z" style="fill:#ffffff" />
      <path d="m 492.5968,680.9279 c 1.72,-1 3.07,-2.43 4.06,-4.28 0.99,-1.85 1.48,-4 1.48,-6.45 0,-2.47 -0.49,-4.63 -1.48,-6.47 -0.99,-1.84 -2.33,-3.26 -4.04,-4.26 -1.71,-1 -3.65,-1.5 -5.83,-1.5 -2.18,0 -4.12,0.5 -5.83,1.5 -1.71,1 -3.05,2.42 -4.04,4.26 -0.99,1.84 -1.48,4 -1.48,6.47 0,2.44 0.49,4.59 1.48,6.45 0.98,1.85 2.34,3.28 4.06,4.28 1.72,1 3.66,1.5 5.8,1.5 2.16,0 4.1,-0.5 5.82,-1.5 m -13.62,2.98 c -2.35,-1.34 -4.22,-3.21 -5.58,-5.61 -1.37,-2.4 -2.05,-5.1 -2.05,-8.1 0,-3 0.68,-5.7 2.05,-8.1 1.37,-2.4 3.23,-4.27 5.58,-5.61 2.35,-1.34 4.96,-2.01 7.81,-2.01 2.89,0 5.5,0.67 7.86,2.01 2.35,1.34 4.21,3.2 5.56,5.58 1.35,2.38 2.03,5.09 2.03,8.12 0,3.03 -0.68,5.74 -2.03,8.12 -1.35,2.38 -3.21,4.25 -5.56,5.58 -2.35,1.34 -4.97,2.01 -7.86,2.01 -2.85,0.02 -5.46,-0.65 -7.81,-1.99" style="fill:#ffffff" />
      <path d="m 540.2423,685.6075 h -4.02 l -16.16,-24.5 v 24.5 h -4.02 v -30.81 h 4.02 l 16.16,24.46 v -24.46 h 4.02 z" style="fill:#ffffff" />
    </g>
  </g>
</svg>
